<?xml version="1.0" encoding="UTF-8"?><svg id="_Layer_" xmlns="http://www.w3.org/2000/svg" xmlns:xlink="http://www.w3.org/1999/xlink" viewBox="0 0 2000 760.96"><defs><style>.cls-1{fill:url(#linear-gradient-2);}.cls-2{fill:#03193f;}.cls-3{fill:#0040d5;}.cls-4{fill:#007af0;}.cls-5{fill:url(#linear-gradient-5);}.cls-6{fill:none;}.cls-7{fill:url(#linear-gradient-3);}.cls-8{fill:url(#linear-gradient);}.cls-9{fill:url(#linear-gradient-4);}</style><linearGradient id="linear-gradient" x1="376.38" y1="544.63" x2="376.38" y2="318.93" gradientTransform="matrix(1, 0, 0, 1, 0, 0)" gradientUnits="userSpaceOnUse"><stop offset="0" stop-color="#0d47a1"/><stop offset="1" stop-color="#0052e2"/></linearGradient><linearGradient id="linear-gradient-2" x1="602.08" y1="544.63" x2="602.08" y2="318.93" gradientTransform="matrix(1, 0, 0, 1, 0, 0)" gradientUnits="userSpaceOnUse"><stop offset="0" stop-color="#00d9ff"/><stop offset="1" stop-color="#008df7"/></linearGradient><linearGradient id="linear-gradient-3" x1="422.98" y1="272.33" x2="555.48" y2="272.33" gradientTransform="matrix(1, 0, 0, 1, 0, 0)" gradientUnits="userSpaceOnUse"><stop offset="0" stop-color="#0051d6"/><stop offset="1" stop-color="#008df7"/></linearGradient><linearGradient id="linear-gradient-4" x1="248.99" y1="403.82" x2="692.19" y2="403.82" xlink:href="#linear-gradient"/><linearGradient id="linear-gradient-5" x1="286.27" y1="366.54" x2="729.47" y2="366.54" gradientTransform="matrix(1, 0, 0, 1, 0, 0)" gradientUnits="userSpaceOnUse"><stop offset="0" stop-color="#008df7"/><stop offset="1" stop-color="#00d9ff"/></linearGradient></defs><g id="Layer_2"><rect class="cls-6" x="0" y="-129.62" width="2000" height="1029.6"/><g><g><path class="cls-8" d="M329.78,318.93v132.51c0,51.47,41.73,93.2,93.2,93.2h0v-225.7h-93.2Z"/><rect class="cls-1" x="555.48" y="318.93" width="93.2" height="225.7"/><rect class="cls-7" x="422.98" y="225.73" width="132.51" height="93.2"/><rect class="cls-3" x="329.78" y="225.73" width="93.2" height="93.2"/><path class="cls-4" d="M555.48,225.73h0v93.2h93.2c0-51.47-41.73-93.2-93.2-93.2Z"/><g><path class="cls-9" d="M424.19,588.14c-76.05,0-137.92-61.87-137.92-137.92V182.23h-37.28V450.22c0,96.61,78.6,175.2,175.2,175.2h268v-37.28H424.19Z"/><path class="cls-5" d="M554.26,144.95H286.27v37.28h268c76.05,0,137.92,61.87,137.92,137.92v268h37.28V320.15c0-96.61-78.6-175.2-175.2-175.2Z"/><rect class="cls-3" x="248.99" y="144.95" width="37.28" height="37.28"/><rect class="cls-4" x="692.19" y="588.14" width="37.28" height="37.28"/></g></g><g><path class="cls-2" d="M859.06,549.96v-230.05c30.7-10.45,63.46-15.68,98.29-15.68,23.96,0,44.8,3.39,62.53,10.18,17.72,6.79,32.34,18.47,43.84,35.04,11.5,16.57,17.26,37.48,17.26,62.73v137.78h-51.91v-138.58c0-22.54-7.17-38.81-21.52-48.81-14.35-10-32.67-15-54.98-15-9.25,0-23.12,2.38-41.6,7.14v195.25h-51.91Z"/><path class="cls-2" d="M1255.27,510.43c29.21,0,51.43-11,66.67-33l38.1,24.5c-26.99,34.56-61.91,51.83-104.77,51.83-39.05,0-69.45-12.31-91.2-36.96-21.75-24.64-32.46-53.59-32.14-86.86,0-33.27,11.03-62.22,33.1-86.87,22.06-24.64,51.98-37.12,89.77-37.43,34.6-.31,63.02,10.74,85.24,33.15,22.22,22.41,33.33,50.32,33.33,83.7,0,8.67-.64,17.98-1.9,27.93h-187.63c3.17,16.67,11.03,30.84,23.57,42.5,12.54,11.67,28.49,17.5,47.86,17.5Zm-70.48-103.34h138.1c-3.5-17.95-11.12-32.03-22.86-42.27-11.75-10.24-26.67-15.51-44.76-15.83-20,.31-35.88,5.59-47.62,15.83-11.75,10.24-19.37,24.33-22.86,42.27Z"/><path class="cls-2" d="M1513.38,393.71l55.24-86.63h61.43l-80.96,121.91,81.91,120.96h-61.43l-55.81-85.81c-6.04,9.23-15.61,23.86-28.72,43.89-13.11,20.04-22.26,34.01-27.43,41.91h-62.81l82.39-120.96c-9.14-13.77-23.11-34.81-41.92-63.14-18.81-28.33-31.83-47.92-39.04-58.78h61.91l55.24,86.63Z"/><path class="cls-2" d="M1751.01,500.91v49.53c-28.57,3.17-50.32-1.58-65.24-14.29-14.93-12.69-22.38-32.86-22.38-60.48V216.6h51.91V473.21c0,10.38,2.54,17.93,7.62,22.64,5.07,4.72,14.44,6.41,28.1,5.05Z"/></g></g></g></svg>